<svg height="512" viewBox="0 0 60 52" width="512" xmlns="http://www.w3.org/2000/svg"><g id="Page-1" fill="none" fill-rule="evenodd"><g id="034---Traffic" fill="rgb(0,0,0)" fill-rule="nonzero"><path id="Shape" d="m57.7659 26.1115-3.5994-11.2653c-.8995912-2.3107706-3.1209173-3.8362615-5.6006-3.8462h-7.1159l-2.2854-7.1465c-.8929897-2.31433961-3.1139729-3.84412886-5.5946-3.8535h-22.14c-2.49891775.01437685-4.73056568 1.56717852-5.6126 3.9053l-3.5833 11.2062c-1.31312339.34546-2.22984397 1.5307012-2.2341 2.8885v12c.00181871 1.6561003 1.34389967 2.9981813 3 3h1v5c.00181871 1.6561003 1.34389967 2.9981813 3 3h3c1.6561003-.0018187 2.9981813-1.3438997 3-3v-5h2v8c.0018187 1.6561003 1.3438997 2.9981813 3 3h1v5c.0018187 1.6561003 1.3438997 2.9981813 3 3h3c1.6561003-.0018187 2.9981813-1.3438997 3-3v-5h19v5c.0018187 1.6561003 1.3438997 2.9981813 3 3h3c1.6561003-.0018187 2.9981813-1.3438997 3-3v-5h1c1.6561003-.0018187 2.9981813-1.3438997 3-3v-12c-.0041865-1.3578227-.920936-2.5431013-2.2341-2.8885zm-5.4859-10.6022 3.3509 10.4907h-3.4471l-2.6623-9.2759c-.1232365-.4287253-.5154141-.7240719-.9615-.7241h-22.12c-.4460488.0000726-.8381737.2954103-.9614.7241l-2.6624 9.2759h-3.4471l3.0644-9.599c.0067-.0152.0091-.0317.0151-.0474l.2521-.79c.5995787-1.5404094 2.0804283-2.5572589 3.7334-2.5636h22.1318c1.6336281.0016696 3.1028855.9943213 3.7141 2.5093zm-2.1774 10.4907h-25.2052l2.296-8h20.6132zm-29.2881-11.0991-.0317.0991h-10.8854l2.296-8h20.6142l1.1533 4h-7.5268c-2.4990192.015071-4.7316802 1.5648943-5.6196 3.9009zm-13.1099-10.3345c.59431721-1.54140446 2.07340005-2.56033348 3.7254-2.5664h22.14c1.6337298.00131715 3.1020487.99719978 3.7075 2.5146l2.073 6.4854h-3.308l-1.5215-5.2769c-.1234082-.42825116-.5153223-.72314513-.961-.7231h-22.12c-.4460488.00007265-.8381737.29541031-.9614.7241l-2.6624 9.2759h-3.4462zm3.2954 33.4336c-.0007162.5519878-.4480122.9992838-1 1h-3c-.55198782-.0007162-.99928381-.4480122-1-1v-5h5zm1-7h-9c-.55198782-.0007162-.99928381-.4480122-1-1v-12c.00071619-.5519878.44801218-.9992838 1-1h5.5668.0035.003 11.5707l-2.91 9.1115c-1.313104.3454674-2.2297908 1.5307179-2.234 2.8885v2zm14 18c-.0007162.5519878-.4480122.9992838-1 1h-3c-.5519878-.0007162-.9992838-.4480122-1-1v-5h5zm28 0c-.0007162.5519878-.4480122.9992838-1 1h-3c-.5519878-.0007162-.9992838-.4480122-1-1v-5h5zm4-8c-.0007162.5519878-.4480122.9992838-1 1h-39c-.5519878-.0007162-.9992838-.4480122-1-1v-12c.0007162-.5519878.4480122-.9992838 1-1h33.4267l.003.0005.0035-.0005h5.5668c.5519878.0007162.9992838.4480122 1 1z"/><path id="Shape" d="m23.5 31c-1.9329966 0-3.5 1.5670034-3.5 3.5s1.5670034 3.5 3.5 3.5 3.5-1.5670034 3.5-3.5c-.0023143-1.9320372-1.5679628-3.4976857-3.5-3.5zm0 5c-.6066934 0-1.1536478-.3654633-1.3858193-.9259749-.2321715-.5605115-.1038379-1.2056883.3251591-1.6346853s1.0741738-.5573306 1.6346853-.3251591c.5605116.2321715.9259749.7791259.9259749 1.3858193-.0009369.8280388-.6719612 1.4990631-1.5 1.5z"/><path id="Shape" d="m51.5 31c-1.9329966 0-3.5 1.5670034-3.5 3.5s1.5670034 3.5 3.5 3.5 3.5-1.5670034 3.5-3.5c-.0023143-1.9320372-1.5679628-3.4976857-3.5-3.5zm0 5c-.8284271 0-1.5-.6715729-1.5-1.5s.6715729-1.5 1.5-1.5 1.5.6715729 1.5 1.5c-.0009369.8280388-.6719612 1.4990631-1.5 1.5z"/><path id="Shape" d="m8.5 20c-1.93299662 0-3.5 1.5670034-3.5 3.5s1.56700338 3.5 3.5 3.5c1.9329966 0 3.5-1.5670034 3.5-3.5-.0023143-1.9320372-1.5679628-3.4976857-3.5-3.5zm0 5c-.82842712 0-1.5-.6715729-1.5-1.5s.67157288-1.5 1.5-1.5 1.5.6715729 1.5 1.5c-.00093685.8280388-.67196124 1.4990631-1.5 1.5z"/></g></g></svg>